<svg xmlns="http://www.w3.org/2000/svg" width="960" height="760" viewBox="0 0 960 760" font-family="-apple-system, BlinkMacSystemFont, Segoe UI, Roboto, sans-serif">
  <rect x="0" y="0" width="960" height="760" fill="#f7f7f8"/>
  <text x="480" y="46" text-anchor="middle" font-size="30" font-weight="700" fill="#111111">Autonomous</text>

  <!-- Skills -->
  <rect x="24" y="66" width="912" height="92" rx="16" fill="#14b8a6"/>
  <text x="480" y="97" text-anchor="middle" font-size="19" font-weight="600" fill="#ffffff">Skills</text>
  <g fill="#ffffff" fill-opacity="0.2"><rect x="44" y="110" width="166" height="40" rx="10"/><rect x="220" y="110" width="166" height="40" rx="10"/><rect x="396" y="110" width="166" height="40" rx="10"/><rect x="572" y="110" width="166" height="40" rx="10"/><rect x="748" y="110" width="168" height="40" rx="10"/></g>
  <g fill="#ffffff" font-size="13" text-anchor="middle"><text x="127" y="135">guard</text><text x="303" y="135">mood</text><text x="479" y="135">scene</text><text x="655" y="135">habit</text><text x="832" y="135">wellbeing</text></g>

  <!-- Tools -->
  <rect x="24" y="170" width="292" height="146" rx="16" fill="#84cc16"/>
  <text x="170" y="200" text-anchor="middle" font-size="19" font-weight="600" fill="#ffffff">Tools</text>
  <g fill="#ffffff" fill-opacity="0.2"><rect x="44" y="216" width="252" height="42" rx="10"/><rect x="44" y="266" width="252" height="42" rx="10"/></g>
  <g fill="#ffffff" font-size="13" text-anchor="middle"><text x="170" y="242">MCP</text><text x="170" y="292">CLI</text></g>

  <!-- System Managers -->
  <rect x="332" y="170" width="604" height="146" rx="16" fill="#eab308"/>
  <text x="634" y="200" text-anchor="middle" font-size="19" font-weight="600" fill="#ffffff">System Managers</text>
  <g fill="#ffffff" fill-opacity="0.2"><rect x="352" y="216" width="180" height="42" rx="10"/><rect x="544" y="216" width="180" height="42" rx="10"/><rect x="736" y="216" width="180" height="42" rx="10"/><rect x="352" y="266" width="180" height="42" rx="10"/><rect x="544" y="266" width="180" height="42" rx="10"/><rect x="736" y="266" width="180" height="42" rx="10"/></g>
  <g fill="#ffffff" font-size="13" text-anchor="middle"><text x="442" y="242">intent</text><text x="634" y="242">network</text><text x="826" y="242">OTA</text><text x="442" y="292">sensing</text><text x="634" y="292">health</text><text x="826" y="292">safety</text></g>

  <!-- Agentic Runtime -->
  <rect x="24" y="330" width="912" height="92" rx="16" fill="#4f46e5"/>
  <text x="480" y="361" text-anchor="middle" font-size="19" font-weight="600" fill="#ffffff">Agentic Runtime</text>
  <g fill="#ffffff" fill-opacity="0.2"><rect x="44" y="374" width="282" height="40" rx="10"/><rect x="338" y="374" width="282" height="40" rx="10"/><rect x="632" y="374" width="284" height="40" rx="10"/></g>
  <g fill="#ffffff" font-size="13" text-anchor="middle"><text x="185" y="399">OpenClaw</text><text x="479" y="399">Hermes</text><text x="774" y="399">Custom Runtime</text></g>

  <!-- HAL -->
  <rect x="24" y="434" width="912" height="92" rx="16" fill="#06b6d4"/>
  <text x="480" y="465" text-anchor="middle" font-size="19" font-weight="600" fill="#ffffff">Hardware Abstraction Layer (HAL)</text>
  <g fill="#ffffff" fill-opacity="0.2"><rect x="44" y="478" width="137" height="40" rx="10"/><rect x="191" y="478" width="137" height="40" rx="10"/><rect x="338" y="478" width="137" height="40" rx="10"/><rect x="485" y="478" width="137" height="40" rx="10"/><rect x="632" y="478" width="137" height="40" rx="10"/><rect x="779" y="478" width="137" height="40" rx="10"/></g>
  <g fill="#ffffff" font-size="13" text-anchor="middle"><text x="112" y="503">audio</text><text x="259" y="503">vision</text><text x="406" y="503">motion</text><text x="553" y="503">light</text><text x="700" y="503">display</text><text x="847" y="503">presence</text></g>

  <!-- Linux Kernel -->
  <rect x="24" y="538" width="912" height="186" rx="16" fill="#ea580c"/>
  <text x="480" y="569" text-anchor="middle" font-size="19" font-weight="600" fill="#ffffff">Linux Kernel</text>
  <rect x="44" y="582" width="872" height="94" rx="12" fill="#ffffff" fill-opacity="0.12"/>
  <text x="480" y="604" text-anchor="middle" font-size="15" font-weight="500" fill="#ffffff">Drivers</text>
  <g fill="#ffffff" fill-opacity="0.2"><rect x="60" y="618" width="160" height="40" rx="10"/><rect x="230" y="618" width="160" height="40" rx="10"/><rect x="400" y="618" width="160" height="40" rx="10"/><rect x="570" y="618" width="160" height="40" rx="10"/><rect x="740" y="618" width="160" height="40" rx="10"/></g>
  <g fill="#ffffff" font-size="13" text-anchor="middle"><text x="140" y="643">feetech</text><text x="310" y="643">ws2812</text><text x="480" y="643">gc9a01</text><text x="650" y="643">camera</text><text x="820" y="643">STT/TTS/VAD</text></g>
  <rect x="44" y="684" width="872" height="32" rx="10" fill="#ffffff" fill-opacity="0.12"/>
  <text x="480" y="705" text-anchor="middle" font-size="14" font-weight="500" fill="#ffffff">Power Management</text>
</svg>
